<svg id="Layer_1" data-name="Layer 1" xmlns="http://www.w3.org/2000/svg" viewBox="0 0 1900 1894"><defs><style>.cls-1{fill:#fee058;}.cls-2{fill:#2a9d8f;}.cls-3{fill:#264653;}.cls-4{fill:#e86f51;}.cls-5{fill:#f5a261;}</style></defs><polygon class="cls-1" points="1900 915 982 915 982 0 918 0 918 915 0 915 0 979 918 979 918 1894 982 1894 982 979 1900 979 1900 915"/><path class="cls-2" d="M1833.67,1577.82a82.85,82.85,0,0,0-25.84-162.49,82.83,82.83,0,1,0-83.89-142.75,82.83,82.83,0,1,0-144-81.69,82.83,82.83,0,1,0-165.58,1.28,82.83,82.83,0,1,0-142.75,83.89,82.83,82.83,0,1,0-81.69,144,82.83,82.83,0,1,0,1.28,165.58,82.83,82.83,0,1,0,83.89,142.75,82.83,82.83,0,1,0,144,81.69,82.83,82.83,0,1,0,165.58-1.28,82.83,82.83,0,1,0,142.75-83.89,82.83,82.83,0,1,0,81.69-144A82.84,82.84,0,0,0,1833.67,1577.82Z" transform="translate(-53 -53)"/><path class="cls-3" d="M762.55,1501c66.21-25.89,102.75-85.25,111.89-154.51h-1.38l.64-.64c-51.64-43-125.32-59.69-188.22-30.1,28.45-65,12.4-132.7-30-188v-.85c-67,6.1-130.91,46.41-154.49,111.81-25.89-66.16-85.25-102.68-154.51-111.81v1.38l-.74-.74c-43,51.63-59.69,125.32-30.1,188.22-65.08-28.48-132.86-12.36-188.25,30.12l.66.66h-1.51c6.11,67,46.45,130.91,111.89,154.49-66.21,25.89-102.75,85.25-111.89,154.51h.91c51.63,43,125.28,59.61,188.15,30-28.49,65.08-12.37,132.85,30.12,188.24l.76-.75v1.11c67-6.1,130.91-46.41,154.49-111.81,25.89,66.16,85.25,102.68,154.51,111.81v-.54c42.88-51.62,59.48-125.2,29.94-188,65,28.47,132.8,12.37,188.18-30.08h.82C868.33,1588.53,828,1524.59,762.55,1501Z" transform="translate(-53 -53)"/><path class="cls-4" d="M670.13,522.32a103,103,0,1,0,0-45.64H555.49l81.36-81.36A103,103,0,1,0,604.58,363l-81.26,81.27V329.86a103,103,0,1,0-45.64,0V444.21L396.51,363a102.94,102.94,0,1,0-32.27,32.28l81.37,81.36H330.87a103,103,0,1,0,0,45.64H445.31l-81.07,81.06a103,103,0,1,0,32.27,32.28l81.17-81.17V669.13a103,103,0,1,0,45.64,0V554.39l81.26,81.27a102.94,102.94,0,1,0,32.27-32.28l-81.06-81.06Z" transform="translate(-53 -53)"/><path class="cls-5" d="M1853.7,517.19l-101.28-17.85,101.28-17.86A43.92,43.92,0,0,0,1838.45,395l-101.28,17.86,89.06-51.42a43.92,43.92,0,1,0-43.92-76.07l-89.06,51.42,66.1-78.78a43.92,43.92,0,0,0-67.28-56.46L1626,280.3l35.17-96.64a43.92,43.92,0,1,0-82.54-30l-35.33,97.07V147.56a43.92,43.92,0,0,0-87.84,0V249.82l-35-96.2a43.92,43.92,0,1,0-82.54,30L1373,280.3l-66.1-78.78A43.92,43.92,0,0,0,1239.65,258l66.1,78.78-89.06-51.42a43.92,43.92,0,1,0-43.92,76.07l89.06,51.42L1160.55,395a43.92,43.92,0,0,0-15.25,86.51l101.28,17.86L1145.3,517.19a43.92,43.92,0,0,0,7.58,87.18,44.59,44.59,0,0,0,7.67-.67l101.28-17.86-89.06,51.42a43.92,43.92,0,1,0,43.92,76.07l89.06-51.42-66.1,78.78a43.92,43.92,0,1,0,67.29,56.46l66.1-78.78L1337.87,815a43.92,43.92,0,1,0,82.54,30l35-96.2V851.44a43.92,43.92,0,0,0,87.84,0V748l35.33,97.07a43.92,43.92,0,1,0,82.54-30L1626,718.37l66.11,78.78a43.92,43.92,0,1,0,67.28-56.46l-66.1-78.78,89.06,51.42a43.92,43.92,0,1,0,43.92-76.07l-89.06-51.42,101.28,17.86a44.59,44.59,0,0,0,7.67.67,43.92,43.92,0,0,0,7.58-87.18Z" transform="translate(-53 -53)"/></svg>