<svg id="Layer_1" data-name="Layer 1" xmlns="http://www.w3.org/2000/svg" viewBox="0 0 1880.74 883.04"><defs><style>.cls-1{fill:#fff9f1;}.cls-2{fill:#e86f51;}.cls-3{fill:#fee058;}.cls-4{fill:#2a9d8f;}.cls-5{fill:#f5a261;}</style></defs><path class="cls-1" d="M994.61,335q-16.68,0-28.64-5.11t-18.28-14.65q-6.32-9.54-6.32-23.25h26.35q0,9.68,7.13,15.19t19.76,5.51h11.83q12.9,0,20.16-5.65t7.26-15.86q0-9.13-4.44-14.11t-13.3-6.05l-39.8-5.65q-15.86-2.14-24.46-12.9t-8.6-27.7q0-19.89,13.44-30.91t37.64-11h11.83q22.58,0,36.43,10.76t14.92,28.49h-26.89a15.62,15.62,0,0,0-7-12.63q-6.72-4.84-17.47-4.84H994.34q-11.83,0-18.55,5.38t-6.72,14.51q0,7.26,3.76,11.43t11,5.24l37.37,5.38q19.1,2.68,28.77,13.85t9.68,30.78q0,21-13.85,32.4T1006.44,335Z" transform="translate(-0.16 -98.48)"/><path class="cls-1" d="M1136.83,335.51q-26.08,0-41.67-15.32t-15.6-41.68V185h26.62v93.56q0,15.6,8.2,24.6t22.45,9q14.52,0,22.85-9t8.33-24.6V185h26.62v93.56q0,26.36-15.86,41.68T1136.83,335.51Z" transform="translate(-0.16 -98.48)"/><path class="cls-1" d="M1219.2,381.22V185h26.35v28.77h5.65l-6.19,7.8q0-18.28,11.16-28.77t30-10.49q14.52,0,25.4,6.73a44.89,44.89,0,0,1,16.94,19.22q6,12.49,6,29.44v42.21q0,16.93-5.91,29.44a45.11,45.11,0,0,1-16.81,19.36q-10.89,6.85-25.67,6.85-18.56,0-29.85-10.62T1245,296.26l6.19,8.06h-5.92l.54,34.42v42.48Zm57.54-68.83q14.77,0,23-7.8t8.2-24.73V237.92q0-17.21-8.2-24.87t-23-7.66q-14.27,0-22.59,9t-8.33,24.87v39.25q0,15.87,8.33,24.87T1276.74,312.39Z" transform="translate(-0.16 -98.48)"/><path class="cls-1" d="M1414.25,335.51q-17.74,0-31-7.12A50.5,50.5,0,0,1,1362.5,308q-7.39-13.31-7.4-31.59v-35q0-18.56,7.4-31.72a50.77,50.77,0,0,1,20.7-20.3q13.3-7.12,31-7.13t31.06,7A50.64,50.64,0,0,1,1466,209q7.38,12.76,7.39,30.24v26.35h-92.22v12.9q0,16.14,9,25.28t24.06,9.14q12.64,0,21.11-4.84t10.08-13.44h26.62q-2.7,18.81-18.56,29.84T1414.25,335.51Zm33.07-87.11V239q0-16.94-8.6-26.08t-24.47-9.14q-15.87,0-24.46,9.28t-8.61,26.21V246h68.29Z" transform="translate(-0.16 -98.48)"/><path class="cls-1" d="M1497.54,332.82V185h26.35v28.77h6.18l-6.18,6.72q0-17.48,10.75-27.82t29.58-10.36q23.12,0,35.62,14t12.5,39.8v12.9h-26.62V236.3q0-15.59-7.79-23.25t-22.59-7.66q-15.06,0-23.12,8.87t-8.06,25.27v93.29Z" transform="translate(-0.16 -98.48)"/><path class="cls-1" d="M994.61,604.66q-16.68,0-28.64-5.11T947.69,584.9q-6.32-9.54-6.32-23.26h26.35q0,9.68,7.13,15.19t19.76,5.51h11.83q12.9,0,20.16-5.64t7.26-15.86q0-9.15-4.44-14.12t-13.3-6.05L976.32,535q-15.86-2.16-24.46-12.91t-8.6-27.69q0-19.89,13.44-30.92t37.64-11h11.83q22.58,0,36.43,10.75t14.92,28.5h-26.89a15.63,15.63,0,0,0-7-12.64q-6.72-4.83-17.47-4.84H994.34q-11.83,0-18.55,5.38t-6.72,14.52q0,7.26,3.76,11.43t11,5.24l37.37,5.38q19.1,2.68,28.77,13.84t9.68,30.79q0,21-13.85,32.39t-39.38,11.43Z" transform="translate(-0.16 -98.48)"/><path class="cls-1" d="M1138,605.2q-17.74,0-31-7.13a50.47,50.47,0,0,1-20.7-20.43q-7.39-13.3-7.39-31.59V511.1q0-18.56,7.39-31.73a50.83,50.83,0,0,1,20.7-20.3q13.3-7.11,31-7.12t31.06,7a50.62,50.62,0,0,1,20.7,19.76q7.4,12.78,7.39,30.25v26.34h-92.21V548.2q0,16.13,9,25.27t24.06,9.14q12.64,0,21.11-4.84t10.08-13.44h26.62q-2.7,18.82-18.55,29.84T1138,605.2Zm33.07-87.11v-9.41q0-16.94-8.6-26.08T1138,473.46q-15.86,0-24.46,9.27t-8.6,26.22v6.72h68.28Z" transform="translate(-0.16 -98.48)"/><path class="cls-1" d="M1277.3,605.2q-18,0-31.59-6.86a49.32,49.32,0,0,1-21-19.63q-7.4-12.76-7.39-30.51V509q0-18,7.39-30.65a49.62,49.62,0,0,1,21-19.49q13.57-6.85,31.59-6.86,26.07,0,42.08,13.85t16.8,37.77h-26.35q-.81-13.44-9.41-20.7t-23.12-7.26q-15.33,0-24.33,8.47t-9,24.6V548.2q0,16.13,9,24.73t24.33,8.61q14.52,0,23.12-7.4t9.41-20.56h26.35q-.81,23.92-16.8,37.77T1277.3,605.2Z" transform="translate(-0.16 -98.48)"/><path class="cls-1" d="M1358,602.51V454.64h26.34v28.77h6.19l-6.19,6.72q0-17.47,10.76-27.83T1424.71,452q23.11,0,35.62,14t12.51,39.79v12.91h-26.62V506q0-15.58-7.8-23.26t-22.58-7.66q-15.06,0-23.12,8.87t-8.07,25.28v93.29Z" transform="translate(-0.16 -98.48)"/><path class="cls-1" d="M1549.48,605.2q-17.74,0-31-7.13a50.47,50.47,0,0,1-20.7-20.43q-7.39-13.3-7.4-31.59V511.1q0-18.56,7.4-31.73a50.83,50.83,0,0,1,20.7-20.3q13.3-7.11,31-7.12t31.06,7a50.62,50.62,0,0,1,20.7,19.76q7.4,12.78,7.39,30.25v26.34h-92.22V548.2q0,16.13,9,25.27t24.06,9.14q12.64,0,21.11-4.84t10.08-13.44h26.62q-2.7,18.82-18.55,29.84T1549.48,605.2Zm33.07-87.11v-9.41q0-16.94-8.6-26.08t-24.47-9.14q-15.86,0-24.46,9.27T1516.41,509v6.72h68.29Z" transform="translate(-0.16 -98.48)"/><path class="cls-1" d="M1704.23,602.51q-18.81,0-30.24-11t-11.43-29.3V478.84h-41.94v-24.2h41.94V413h26.89v41.67h60v24.2h-60v83.07q0,7.26,4.16,11.83t11.16,4.57h43.29v24.2Z" transform="translate(-0.16 -98.48)"/><path class="cls-2" d="M994.61,874.34q-16.68,0-28.64-5.1t-18.28-14.66q-6.32-9.54-6.32-23.25h26.35q0,9.67,7.13,15.19T994.61,852h11.83q12.9,0,20.16-5.65t7.26-15.86q0-9.13-4.44-14.11t-13.3-6l-39.8-5.65q-15.86-2.15-24.46-12.9t-8.6-27.7q0-19.89,13.44-30.91t37.64-11h11.83q22.58,0,36.43,10.76t14.92,28.5h-26.89a15.63,15.63,0,0,0-7-12.64q-6.72-4.85-17.47-4.84H994.34q-11.83,0-18.55,5.38t-6.72,14.52c0,4.83,1.25,8.65,3.76,11.42s6.18,4.53,11,5.24l37.37,5.38q19.1,2.7,28.77,13.85t9.68,30.78q0,21-13.85,32.4t-39.38,11.42Z" transform="translate(-0.16 -98.48)"/><path class="cls-2" d="M1126.93,874.88q-22.85,0-36.16-12.77t-13.31-33.47q0-14,6.32-24.2a43.28,43.28,0,0,1,17.75-16q11.42-5.79,26.21-5.78H1171v-11.3q0-13.71-7.53-20.43t-22.59-6.72q-13.44,0-21.64,5T1110.53,763h-26.34q1.33-18,16.4-29.71t40.32-11.69q27.43,0,42.08,13t14.65,36.17V872.19h-26.35V845H1167l4.3-5.38a32.54,32.54,0,0,1-5.37,18.69,34.52,34.52,0,0,1-15.33,12.23Q1140.65,874.89,1126.93,874.88Zm7-22.31q16.95,0,27-8.2T1171,821.92V802.29h-40.87q-11.57,0-18.69,6.86t-7.12,18.14q0,11.57,7.8,18.42T1133.92,852.57Z" transform="translate(-0.16 -98.48)"/><path class="cls-2" d="M1219,872.19V724.32h22.58v20.17h5.65l-5.11,4.3q0-12.1,6.72-19.63t18-7.52q12.92,0,20.44,9.54t7.52,24.87l-7-12.64h10.76l-5.92,5.38q.27-12.36,7.26-19.76t18.55-7.39q14.25,0,22.72,10.61t8.47,27.56V872.19h-24.2V760.08q0-8.33-4.16-13.31a13.85,13.85,0,0,0-11.16-5q-7,0-11,4.84t-4,13.44V872.19h-21.51V760.08q0-8.33-4-13.31a13.44,13.44,0,0,0-11-5,14,14,0,0,0-11.16,4.84q-4.17,4.85-4.17,13.44V872.19Z" transform="translate(-0.16 -98.48)"/><path class="cls-2" d="M1371,920.59V724.32h26.35v28.77H1403l-6.18,7.8q0-18.28,11.16-28.77t30-10.48q14.51,0,25.4,6.72a44.94,44.94,0,0,1,16.94,19.22q6,12.49,6,29.44v42.21q0,16.93-5.92,29.44a45,45,0,0,1-16.8,19.36q-10.89,6.86-25.67,6.85-18.56,0-29.85-10.62t-11.29-28.63l6.18,8.07h-5.91l.54,34.41v42.48Zm57.54-68.83q14.78,0,23-7.8t8.2-24.73V777.29q0-17.2-8.2-24.87t-23-7.66q-14.26,0-22.59,9t-8.33,24.87v39.25q0,15.87,8.33,24.87T1428.56,851.76Z" transform="translate(-0.16 -98.48)"/><path class="cls-2" d="M1567.69,872.19a48.72,48.72,0,0,1-23.26-5.37,38.28,38.28,0,0,1-15.59-15.06q-5.52-9.68-5.52-22.85V700.13h-50.54v-24.2h77.16V828.64q0,8.86,5,14.11t13.57,5.25h44.9v24.19Z" transform="translate(-0.16 -98.48)"/><path class="cls-2" d="M1684.88,874.88q-17.75,0-31.06-7.12a50.5,50.5,0,0,1-20.7-20.44q-7.39-13.3-7.39-31.59v-35q0-18.54,7.39-31.72a50.77,50.77,0,0,1,20.7-20.3q13.32-7.12,31.06-7.12t31,7a50.62,50.62,0,0,1,20.7,19.76q7.39,12.76,7.39,30.24V805h-92.21v12.9q0,16.14,9,25.28t24.07,9.14q12.63,0,21.1-4.84T1716.06,834h26.62q-2.68,18.81-18.55,29.84T1684.88,874.88Zm33.06-87.11v-9.41q0-16.93-8.6-26.07t-24.46-9.15q-15.87,0-24.47,9.28t-8.6,26.21v6.72h68.29Z" transform="translate(-0.16 -98.48)"/><path class="cls-2" d="M1815.83,874.34q-16.66,0-28.63-5.1t-18.28-14.66q-6.33-9.54-6.32-23.25H1789q0,9.67,7.12,15.19t19.76,5.51h11.83q12.9,0,20.17-5.65t7.25-15.86q0-9.13-4.43-14.11t-13.31-6l-39.79-5.65q-15.87-2.15-24.47-12.9t-8.6-27.7q0-19.89,13.44-30.91t37.64-11h11.83q22.59,0,36.43,10.76t14.92,28.5h-26.88a15.63,15.63,0,0,0-7-12.64q-6.72-4.85-17.48-4.84h-11.83q-11.83,0-18.55,5.38a17.62,17.62,0,0,0-6.72,14.52c0,4.83,1.25,8.65,3.76,11.42s6.19,4.53,11,5.24l37.37,5.38q19.08,2.7,28.77,13.85t9.67,30.78q0,21-13.84,32.4t-39.39,11.42Z" transform="translate(-0.16 -98.48)"/><polygon class="cls-3" points="885.84 426.6 457.84 426.6 457.84 0 428 0 428 426.6 0 426.6 0 456.44 428 456.44 428 883.04 457.84 883.04 457.84 456.44 885.84 456.44 885.84 426.6"/><path class="cls-4" d="M830.36,809.4a38.63,38.63,0,0,0-12-75.76,38.62,38.62,0,0,0-37-67.81c-.73.4-1.44.82-2.14,1.26a38.62,38.62,0,1,0-65.79-40.45c-.48.77-.92,1.56-1.34,2.36a38.62,38.62,0,0,0-77.22-1.73c0,.78,0,1.55,0,2.33a38.62,38.62,0,1,0-67.81,37c.4.72.81,1.43,1.25,2.13a38.62,38.62,0,0,0-40.45,65.79c.78.48,1.56.93,2.37,1.35a38.61,38.61,0,1,0-1.73,77.21c.77,0,1.55,0,2.32,0a38.62,38.62,0,0,0,37,67.81c.73-.39,1.44-.81,2.14-1.25a38.62,38.62,0,0,0,65.79,40.45c.48-.77.92-1.56,1.34-2.36a38.62,38.62,0,0,0,77.22,1.72c0-.77,0-1.55,0-2.32a38.62,38.62,0,0,0,67.81-37c-.39-.73-.81-1.44-1.25-2.13a38.62,38.62,0,0,0,40.45-65.8c-.77-.47-1.56-.92-2.37-1.34A38.5,38.5,0,0,0,830.36,809.4Z" transform="translate(-0.16 -98.48)"/><path class="cls-1" d="M331,773.58c30.87-12.07,47.91-39.74,52.17-72h-.64l.3-.29c-24.08-20-58.43-27.83-87.76-14,13.27-30.3,5.78-61.87-14-87.65v-.4c-31.23,2.85-61,21.64-72,52.13-12.08-30.84-39.75-47.87-72-52.13v.65l-.35-.35c-20,24.07-27.83,58.43-14,87.76-30.34-13.28-61.94-5.77-87.77,14l.31.31h-.71c2.85,31.24,21.66,61,52.17,72-30.87,12.07-47.9,39.74-52.17,72h.43c24.07,20,58.41,27.8,87.72,14-13.28,30.34-5.77,61.94,14,87.76L137,947v.51c31.24-2.84,61-21.64,72-52.13,12.07,30.85,39.74,47.88,72,52.13v-.25c20-24.07,27.74-58.37,14-87.65,30.31,13.27,61.92,5.77,87.74-14h.38C380.29,814.39,361.49,784.58,331,773.58Z" transform="translate(-0.16 -98.48)"/><path class="cls-2" d="M287.88,317.29a48,48,0,1,0,0-21.28H234.44l37.93-37.93A48,48,0,1,0,257.32,243L219.44,280.9V227.56a48,48,0,1,0-21.28,0v53.31L160.31,243a48,48,0,1,0-15,15.05L183.21,296h-53.5a48,48,0,1,0,0,21.28h53.36l-37.8,37.79a48,48,0,1,0,15,15.05l37.85-37.84v53.47a48,48,0,1,0,21.28,0v-53.5l37.88,37.89a48,48,0,1,0,15.05-15.05l-37.79-37.79Z" transform="translate(-0.16 -98.48)"/><path class="cls-5" d="M839.7,314.9l-47.22-8.32,47.22-8.33a20.48,20.48,0,0,0-7.11-40.32l-47.22,8.33,41.53-24a20.48,20.48,0,1,0-20.28-35.58l-.2.12-41.52,24,30.81-36.73a20.47,20.47,0,0,0-31.36-26.32l-30.81,36.71,16.4-45a20.48,20.48,0,0,0-38.21-14.75c-.09.25-.19.5-.27.76L695,190.67V142.56a20.48,20.48,0,0,0-41,0v47.68l-16.32-44.85A20.48,20.48,0,1,0,599,158.62c.09.25.18.51.28.76l16.36,45.07-30.82-36.73a20.48,20.48,0,0,0-31.36,26.34l30.82,36.73-41.52-24A20.48,20.48,0,1,0,522,242.16l.2.12,41.52,24-47.22-8.32a20.48,20.48,0,0,0-7.11,40.33h0l47.22,8.33-47.22,8.31a20.48,20.48,0,0,0,7.11,40.33l47.22-8.32-41.52,24a20.48,20.48,0,0,0,20.28,35.58l.2-.11,41.52-24L553.41,419.1a20.48,20.48,0,0,0,31.25,26.48l.13-.16,30.81-36.73-16.39,45.06a20.47,20.47,0,0,0,38.2,14.74c.1-.25.19-.5.28-.76L654,422.88v47.86a20.48,20.48,0,0,0,41,0V422.51l16.47,45.26a20.48,20.48,0,0,0,38.76-13.23c-.08-.26-.18-.51-.27-.76l-16.38-45.09,30.82,36.73a20.48,20.48,0,1,0,31.74-25.88l-.37-.44-30.82-36.73,41.53,24A20.48,20.48,0,0,0,827.12,371l-.21-.11-41.52-24,47.22,8.32a20.48,20.48,0,1,0,7.11-40.33Z" transform="translate(-0.16 -98.48)"/></svg>