<svg width="56" height="30" viewBox="0 0 56 30" fill="none" xmlns="http://www.w3.org/2000/svg">
<path d="M14 26H42V30H14V26Z" fill="#FEE058"/>
<path d="M3.31488 25C1.4917 22.7702 0.396129 19.925 0 16.8173H0.0679551C3.93145 13.5118 9.44742 12.2332 14.1546 14.5141C12.0214 9.49881 13.2264 4.28571 16.4103 0.0238647L16.47 0.0852356V0C21.4871 0.470508 26.2738 3.57995 28.0406 8.61234C29.9798 3.51347 34.43 0.700648 39.6112 0V0.0392075C42.825 4.01295 44.0681 9.68292 41.8521 14.5295C46.72 12.3338 51.7967 13.5748 55.9403 16.8479H56C55.7504 19.8371 54.6278 22.6788 52.7796 25H3.31488Z" fill="#2A9D8F"/>
</svg>
