<svg xmlns="http://www.w3.org/2000/svg" viewBox="0 0 338 338"><defs><style>.cls-1{fill:#e86f51;}</style></defs><g id="Layer_2" data-name="Layer 2"><g id="Layer_1-2" data-name="Layer 1"><path class="cls-1" d="M245.83,179.33a46.66,46.66,0,1,0,0-20.7H193.91l36.88-36.88a46.49,46.49,0,1,0-14.63-14.58L179.33,144V92.17a46.64,46.64,0,1,0-20.66,0V144l-36.78-36.83a46.64,46.64,0,1,0-14.63,14.63l36.87,36.87h-52a46.64,46.64,0,1,0,0,20.66H144l-36.74,36.73a46.59,46.59,0,1,0,14.63,14.59l36.78-36.78v52a46.66,46.66,0,1,0,20.7,0v-52L216.2,230.7a46.63,46.63,0,1,0,14.63-14.64L194.1,179.33Z"/></g></g></svg>