<svg xmlns="http://www.w3.org/2000/svg" viewBox="0 0 338 337.64"><defs><style>.cls-1{fill:#fff9f1;}</style></defs><g id="Layer_2" data-name="Layer 2"><g id="Layer_1-2" data-name="Layer 1"><path class="cls-1" d="M287.44,169c29.91-11.7,46.45-38.54,50.56-69.81h-.63l.27-.28c-23.32-19.43-56.62-27-85-13.6,12.83-29.37,5.6-60-13.56-84.95V0c-30.28,2.76-59.15,21-69.81,50.52C157.52,20.61,130.68,4.11,99.41,0V.63L99.1.32c-19.44,23.31-27,56.62-13.61,85C56.08,72.48,25.44,79.76.41,99l.31.32H0c2.76,30.27,21,59.15,50.56,69.81C20.65,180.79,4.11,207.64,0,238.9H.41c23.31,19.44,56.62,26.94,85,13.56-12.87,29.42-5.6,60,13.61,85l.36-.36v.5c30.27-2.76,59.15-21,69.81-50.52,11.7,29.91,38.55,46.41,69.81,50.52v-.23c19.39-23.31,26.89-56.57,13.52-85,29.37,12.88,60,5.6,85-13.6h.36C335.2,208.54,317,179.66,287.44,169Z"/></g></g></svg>