<svg xmlns="http://www.w3.org/2000/svg" viewBox="0 0 338 337.18"><defs><style>.cls-1{fill:#fee058;}</style></defs><g id="Layer_2" data-name="Layer 2"><g id="Layer_1-2" data-name="Layer 1"><path class="cls-1" d="M338,156.17l-5.94-33.71L261.6,134.88l62-35.77L306.45,69.47l-62,35.78,46-54.81-26.22-22-46,54.81L242.74,16,210.58,4.31,186.11,71.54V0H151.89V71.54L127.42,4.31,95.26,16l24.47,67.23-46-54.81-26.22,22,46,54.81-62-35.78L14.44,99.11l62,35.77L5.94,122.46,0,156.17l70.45,12.42L0,181l5.94,33.71L76.4,202.29l-62,35.77L31.55,267.7l62-35.77-46,54.81,26.22,22,46-54.81L95.26,321.16l32.16,11.71,24.47-67.23v71.54h34.22V265.64l24.47,67.23,32.16-11.71-24.47-67.23,46,54.81,26.22-22-46-54.81,62,35.77,17.11-29.64-62-35.77,70.46,12.43L338,181l-70.45-12.42Zm-81.06,12.42A87.94,87.94,0,0,0,169,256.53h0a87.94,87.94,0,0,0-87.94-87.94h0A87.94,87.94,0,0,0,169,80.65h0a87.94,87.94,0,0,0,87.94,87.94Z"/></g></g></svg>