<svg xmlns="http://www.w3.org/2000/svg" viewBox="0 0 338 338"><defs><style>.cls-1{fill:#f5a261;}</style></defs><g id="Layer_2" data-name="Layer 2"><g id="Layer_1-2" data-name="Layer 1"><path class="cls-1" d="M169,72.87a36.23,36.23,0,0,0,36-36.44,36,36,0,1,0-72,0A36.23,36.23,0,0,0,169,72.87Z"/><path class="cls-1" d="M105.33,96.32A36.75,36.75,0,0,0,109.77,45,35.72,35.72,0,0,0,59.05,40.5a36.75,36.75,0,0,0-4.43,51.33A35.7,35.7,0,0,0,105.33,96.32Z"/><path class="cls-1" d="M71.45,155.71a36.41,36.41,0,0,0-29.2-42.21,36.42,36.42,0,1,0,29.2,42.21Z"/><path class="cls-1" d="M83.22,223.24a35.77,35.77,0,0,0-49.17-13.33,36.67,36.67,0,0,0-13.18,49.77A35.77,35.77,0,0,0,70,273,36.67,36.67,0,0,0,83.22,223.24Z"/><path class="cls-1" d="M135.12,267.32A35.89,35.89,0,0,0,89,289.1a36.56,36.56,0,0,0,21.52,46.69A35.89,35.89,0,0,0,156.64,314,36.56,36.56,0,0,0,135.12,267.32Z"/><path class="cls-1" d="M193.09,256.11a22.14,22.14,0,0,0,19.65-24.32l-.67-6.72,6.42,1.83A21.81,21.81,0,0,0,240.16,221a22.4,22.4,0,0,0-.39-31.41L235,184.89l6.08-2.77a22.28,22.28,0,0,0-7.39-42.41l-6.65-.5,2.9-6.09a22.49,22.49,0,0,0-2-22.61,21.78,21.78,0,0,0-30.64-5.06l-5.41,3.94-1.65-6.55a21.89,21.89,0,0,0-42.54,0l-1.65,6.55-5.41-3.94a21.77,21.77,0,0,0-22.35-2,22.33,22.33,0,0,0-10.25,29.65l2.9,6.09-6.65.5a22,22,0,0,0-18.38,13,22.34,22.34,0,0,0,11,29.39l6.08,2.77-4.78,4.72a22.46,22.46,0,0,0-5.8,21.93,21.92,21.92,0,0,0,27.08,15.36l6.42-1.83-.67,6.72a22.36,22.36,0,0,0,9.48,20.57,21.79,21.79,0,0,0,30.5-5.84l3.76-5.59,3.76,5.59A21.89,21.89,0,0,0,193.09,256.11Z"/><path class="cls-1" d="M202.88,267.32A36.56,36.56,0,0,0,181.36,314a35.89,35.89,0,0,0,46.14,21.77A36.56,36.56,0,0,0,249,289.1,35.89,35.89,0,0,0,202.88,267.32Z"/><path class="cls-1" d="M304,209.91a35.77,35.77,0,0,0-49.17,13.33A36.67,36.67,0,0,0,268,273a35.77,35.77,0,0,0,49.17-13.33A36.67,36.67,0,0,0,304,209.91Z"/><path class="cls-1" d="M337.45,143.06a36,36,0,0,0-41.7-29.56,36.41,36.41,0,0,0-29.2,42.21,36,36,0,1,0,70.9-12.65Z"/><path class="cls-1" d="M232.67,96.32a35.7,35.7,0,0,0,50.71-4.49A36.75,36.75,0,0,0,279,40.5,35.72,35.72,0,0,0,228.23,45,36.75,36.75,0,0,0,232.67,96.32Z"/></g></g></svg>