<svg xmlns="http://www.w3.org/2000/svg" viewBox="0 0 338 338"><defs><style>.cls-1{fill:#264653;}</style></defs><g id="Layer_2" data-name="Layer 2"><g id="Layer_1-2" data-name="Layer 1"><path class="cls-1" d="M194.77,21.91a27.41,27.41,0,0,0-53.71,11L169,169,194.86,32.52A27.88,27.88,0,0,0,194.77,21.91Z"/><path class="cls-1" d="M117.77,28.73a27.41,27.41,0,1,0-41,36.4L169,169,123.15,37.88A27.83,27.83,0,0,0,117.77,28.73Z"/><path class="cls-1" d="M54.5,73.13a27.42,27.42,0,1,0-17.3,52L169,169,63.74,78.37A28.21,28.21,0,0,0,54.5,73.13Z"/><path class="cls-1" d="M21.91,143.23a27.41,27.41,0,0,0,11,53.71L169,169,32.52,143.14A27.88,27.88,0,0,0,21.91,143.23Z"/><path class="cls-1" d="M28.73,220.23a27.41,27.41,0,0,0,36.4,41L169,169,37.88,214.85A27.83,27.83,0,0,0,28.73,220.23Z"/><path class="cls-1" d="M73.13,283.5a27.42,27.42,0,1,0,52,17.3L169,169,78.37,274.26A28.21,28.21,0,0,0,73.13,283.5Z"/><path class="cls-1" d="M143.23,316.09a27.41,27.41,0,0,0,53.71-11L169,169,143.14,305.48A27.88,27.88,0,0,0,143.23,316.09Z"/><path class="cls-1" d="M220.23,309.27a27.41,27.41,0,0,0,41-36.4L169,169l45.85,131.12A27.83,27.83,0,0,0,220.23,309.27Z"/><path class="cls-1" d="M283.5,264.87a27.42,27.42,0,1,0,17.3-52L169,169l105.26,90.63A28.21,28.21,0,0,0,283.5,264.87Z"/><path class="cls-1" d="M316.09,194.77a27.41,27.41,0,0,0-11-53.71L169,169l136.48,25.86A27.88,27.88,0,0,0,316.09,194.77Z"/><path class="cls-1" d="M309.27,117.77a27.41,27.41,0,0,0-36.4-41L169,169l131.12-45.85A27.83,27.83,0,0,0,309.27,117.77Z"/><path class="cls-1" d="M264.87,54.5a27.42,27.42,0,1,0-52-17.3L169,169,259.63,63.74A28.21,28.21,0,0,0,264.87,54.5Z"/></g></g></svg>