<svg xmlns="http://www.w3.org/2000/svg" viewBox="0 0 338 338.04"><defs><style>.cls-1{fill:#fee058;}</style></defs><g id="Layer_2" data-name="Layer 2"><g id="Layer_1-2" data-name="Layer 1"><path class="cls-1" d="M170.6,62a11,11,0,0,0,9.3-12.51c-1.16-8-2.71-15.95-4.1-23.93-1.55-8-3-15.94-4.81-23.92A2.12,2.12,0,0,0,169.43,0,2,2,0,0,0,167,1.59c-1.77,8-3.32,16-4.82,23.92-1.33,8-2.88,16-4.1,23.93a10.79,10.79,0,0,0,0,3.21A11,11,0,0,0,170.6,62Z"/><path class="cls-1" d="M62.67,72.42c4.71,6.59,9.25,13.34,14,19.82A11.1,11.1,0,0,0,79,94.51,11,11,0,0,0,92.08,76.79c-6.48-4.82-13.24-9.36-19.83-14s-13.4-9.13-20.32-13.51a2,2,0,0,0-2.77,2.82C53.59,59,58.13,65.66,62.67,72.42Z"/><path class="cls-1" d="M52.65,180a11,11,0,0,0-3.21-21.82c-8,1.16-15.95,2.71-23.93,4.1-8,1.55-15.94,3-23.92,4.81A2.12,2.12,0,0,0,0,168.6,2,2,0,0,0,1.59,171c8,1.77,16,3.32,23.92,4.82,8,1.33,16,2.88,23.93,4.1A10.79,10.79,0,0,0,52.65,180Z"/><path class="cls-1" d="M92.13,243.58a11.06,11.06,0,0,0-15.45,2.27c-4.82,6.48-9.36,13.24-14,19.83S53.53,279.08,49.16,286A2,2,0,0,0,52,288.77c6.93-4.38,13.63-8.92,20.33-13.51s13.34-9.25,19.82-14A11.1,11.1,0,0,0,94.4,259,10.94,10.94,0,0,0,92.13,243.58Z"/><path class="cls-1" d="M167.39,276.09a11,11,0,0,0-9.31,12.51c1.17,8,2.72,15.95,4.1,23.92,1.55,8,3,16,4.82,23.93a2.09,2.09,0,0,0,1.55,1.55,2.05,2.05,0,0,0,2.44-1.55c1.77-8,3.32-15.95,4.81-23.93,1.33-8,2.88-15.94,4.1-23.92a10.17,10.17,0,0,0,0-3.21A11,11,0,0,0,167.39,276.09Z"/><path class="cls-1" d="M275.31,265.68c-4.71-6.59-9.25-13.35-14-19.83a11.1,11.1,0,0,0-2.27-2.27,11,11,0,0,0-15.39,2.27,11.09,11.09,0,0,0,2.27,15.45c6.48,4.82,13.23,9.36,19.82,14s13.4,9.14,20.32,13.51a2,2,0,0,0,2.16,0,2,2,0,0,0,.61-2.82C284.39,279.13,279.85,272.43,275.31,265.68Z"/><path class="cls-1" d="M336.39,167.05c-8-1.77-15.95-3.32-23.92-4.81-8-1.33-16-2.88-23.92-4.1a10.23,10.23,0,0,0-3.22,0A11,11,0,0,0,288.55,180c8-1.17,15.94-2.72,23.92-4.1,8-1.55,15.95-3.05,23.92-4.82a2.11,2.11,0,0,0,1.55-1.55A2,2,0,0,0,336.39,167.05Z"/><path class="cls-1" d="M228.8,189.26c4-.56,8-1.44,12-2.27a18.32,18.32,0,0,0,0-35.94c-4-.78-8-1.72-12-2.27a59.25,59.25,0,0,0-9.86-.5,59.11,59.11,0,0,0,6.64-7.31c2.44-3.21,4.6-6.64,6.87-10a18.28,18.28,0,0,0-25.36-25.36c-3.38,2.27-6.87,4.43-10,6.86a55.86,55.86,0,0,0-7.31,6.65,53.44,53.44,0,0,0-.5-9.86c-.55-4-1.44-8-2.27-12a18.32,18.32,0,0,0-35.94,0c-.78,4-1.72,8-2.27,12a59.25,59.25,0,0,0-.5,9.86,60,60,0,0,0-7.31-6.65c-3.21-2.43-6.64-4.59-10-6.86A18.28,18.28,0,0,0,105.59,131c2.27,3.38,4.43,6.87,6.86,10a55.86,55.86,0,0,0,6.65,7.31,53.44,53.44,0,0,0-9.86.5c-4,.55-8,1.44-12,2.27a18.32,18.32,0,0,0,0,35.94c4,.77,8,1.71,12,2.27a59.25,59.25,0,0,0,9.86.5,60,60,0,0,0-6.65,7.31c-2.43,3.21-4.59,6.64-6.86,10A18.28,18.28,0,0,0,131,232.45c3.38-2.27,6.87-4.43,10-6.87a55.09,55.09,0,0,0,7.31-6.64,53.44,53.44,0,0,0,.5,9.86c.55,4,1.44,8,2.27,12a18.32,18.32,0,0,0,35.94,0c.77-4,1.72-8,2.27-12a59.25,59.25,0,0,0,.5-9.86,59.11,59.11,0,0,0,7.31,6.64c3.21,2.44,6.64,4.6,10,6.87a18.28,18.28,0,0,0,25.36-25.36c-2.27-3.38-4.43-6.87-6.87-10a55.09,55.09,0,0,0-6.64-7.31A66.89,66.89,0,0,0,228.8,189.26ZM183.33,175c-.22.11-.38.11-.61.22a16.07,16.07,0,0,0-7.8,8.2,5.83,5.83,0,0,1-.56-.28,15.82,15.82,0,0,0-11.29.28c-.11-.22-.11-.39-.23-.61a16.07,16.07,0,0,0-8.19-7.81,3.51,3.51,0,0,1,.28-.55,16.18,16.18,0,0,0-.28-11.3c.22-.11.39-.11.61-.22a16.09,16.09,0,0,0,7.81-8.2c.22.06.38.23.55.28a16.12,16.12,0,0,0,11.3-.28c.11.23.11.39.22.61a16,16,0,0,0,8.19,7.81,5.92,5.92,0,0,1-.27.56A16.15,16.15,0,0,0,183.33,175Z"/><path class="cls-1" d="M245.85,94.46a11.06,11.06,0,0,0,15.45-2.27c4.82-6.48,9.36-13.24,14-19.83S284.45,59,288.82,52a2,2,0,0,0,0-2.16,2,2,0,0,0-2.82-.61c-6.92,4.38-13.62,8.92-20.32,13.51s-13.35,9.25-19.83,14a11.35,11.35,0,0,0-2.27,2.27A10.94,10.94,0,0,0,245.85,94.46Z"/></g></g></svg>