<svg xmlns="http://www.w3.org/2000/svg" viewBox="0 0 338.89 338.87"><defs><style>.cls-1{fill:#264653;}</style></defs><g id="Layer_2" data-name="Layer 2"><g id="Layer_1-2" data-name="Layer 1"><path class="cls-1" d="M313,202.62a35.59,35.59,0,0,0-11.09-69.81A35.6,35.6,0,1,0,267.84,70.3a17,17,0,0,0-2,1.16,35.58,35.58,0,0,0-60.63-37.25c-.43.73-.85,1.42-1.24,2.19a35.6,35.6,0,0,0-71.19-1.59V37A35.6,35.6,0,1,0,70.3,71a17,17,0,0,0,1.16,2,35.58,35.58,0,0,0-37.25,60.63c.73.42,1.42.85,2.19,1.24a35.6,35.6,0,0,0-1.59,71.19H37A35.6,35.6,0,1,0,71,268.57a17,17,0,0,0,2-1.16,35.58,35.58,0,0,0,60.63,37.25c.42-.73.85-1.42,1.24-2.19a35.6,35.6,0,1,0,71.19,1.59v-2.15a35.6,35.6,0,1,0,62.51-34.07,17,17,0,0,0-1.16-2,35.58,35.58,0,0,0,37.25-60.63c-.73-.43-1.42-.85-2.19-1.24A36.63,36.63,0,0,0,313,202.62Z"/></g></g></svg>