<svg xmlns="http://www.w3.org/2000/svg" viewBox="0 0 338 338"><defs><style>.cls-1{fill:#e86f51;}</style></defs><g id="Layer_2" data-name="Layer 2"><g id="Layer_1-2" data-name="Layer 1"><path class="cls-1" d="M327.44,154.63,326.12,153l-1.32-1.54-2.64-3.08-2.64-2.94L318.2,144l-.66-.71c-.22-.24-.44-.47-.66-.67a1.55,1.55,0,0,0-1.33-.41,8,8,0,0,0-1.32.51,3.21,3.21,0,0,1-.66.17,4.85,4.85,0,0,1-.66,0H266.33l25.48-14.71,9.15-5.28,4.57-2.64,1.14-.66c.2-.11.38-.23.58-.32a2.91,2.91,0,0,1,.66-.17,10,10,0,0,0,1.4-.22,1.55,1.55,0,0,0,.94-1c.09-.28.16-.59.23-.91l.22-.95.44-1.89.81-3.86.75-4,.37-2,.33-2.07a159.83,159.83,0,0,0,2-17.73A159.92,159.92,0,0,0,299,77.33l-2-.75-1.91-.68-3.83-1.34-3.75-1.23-1.86-.57-.92-.28a8.92,8.92,0,0,0-.91-.25,1.49,1.49,0,0,0-1.35.3,8.9,8.9,0,0,0-.89,1.1,3.11,3.11,0,0,1-.48.48c-.18.14-.38.23-.57.35l-1.14.66-4.57,2.64L265.73,83,240.25,97.75,255,72.27l5.28-9.15,2.64-4.57.66-1.14c.12-.19.22-.39.35-.57a3.11,3.11,0,0,1,.48-.48,8.9,8.9,0,0,0,1.1-.89,1.49,1.49,0,0,0,.3-1.35,8.92,8.92,0,0,0-.25-.91l-.28-.92-.57-1.86-1.23-3.75-1.34-3.83-.68-1.91-.75-2a159.92,159.92,0,0,0-7.17-16.34,159.83,159.83,0,0,0-17.73,2l-2.07.33-2,.37-4,.75-3.86.81L222,27.3l-1,.22c-.32.07-.63.14-.91.23a1.55,1.55,0,0,0-1,.94,10,10,0,0,0-.22,1.4,2.91,2.91,0,0,1-.17.66c-.09.2-.21.38-.32.58l-.66,1.14L215.07,37l-5.28,9.15L195.08,71.67V25.09a4.85,4.85,0,0,1,0-.66,3.21,3.21,0,0,1,.17-.66,8,8,0,0,0,.51-1.32,1.52,1.52,0,0,0-.41-1.32,8.47,8.47,0,0,0-.67-.67L194,19.8l-1.42-1.32-2.94-2.64-3.08-2.64L185,11.88l-1.64-1.32A158.31,158.31,0,0,0,169,0a158.31,158.31,0,0,0-14.37,10.56L153,11.88l-1.54,1.32-3.08,2.64-2.94,2.64L144,19.8l-.71.66a8.47,8.47,0,0,0-.67.67,1.52,1.52,0,0,0-.41,1.32,8,8,0,0,0,.51,1.32,3.21,3.21,0,0,1,.17.66,4.85,4.85,0,0,1,0,.66V71.67L128.21,46.19,122.93,37l-2.64-4.57-.66-1.14c-.11-.2-.23-.38-.32-.58a2.91,2.91,0,0,1-.17-.66,10,10,0,0,0-.22-1.4,1.55,1.55,0,0,0-1-.94c-.28-.09-.59-.16-.91-.23L116,27.3l-1.89-.44-3.86-.81-4-.75-2-.37-2.07-.33a159.83,159.83,0,0,0-17.73-2A159.92,159.92,0,0,0,77.33,39l-.75,2-.68,1.91-1.34,3.83-1.23,3.75-.57,1.86-.28.92a8.92,8.92,0,0,0-.25.91,1.49,1.49,0,0,0,.3,1.35,8.9,8.9,0,0,0,1.1.89,3.11,3.11,0,0,1,.48.48c.13.18.23.38.35.57l.66,1.14,2.64,4.57L83,72.27,97.75,97.75,72.27,83l-9.15-5.28-4.57-2.64-1.14-.66c-.19-.12-.39-.21-.57-.35a3.11,3.11,0,0,1-.48-.48,8.9,8.9,0,0,0-.89-1.1,1.49,1.49,0,0,0-1.35-.3,8.92,8.92,0,0,0-.91.25l-.92.28-1.86.57-3.75,1.23L42.85,75.9l-1.91.68-2,.75A159.92,159.92,0,0,0,22.64,84.5a159.83,159.83,0,0,0,2,17.73l.33,2.07.37,2,.75,4,.81,3.86L27.3,116l.22.95c.07.32.14.63.23.91a1.55,1.55,0,0,0,.94,1,10,10,0,0,0,1.4.22,2.91,2.91,0,0,1,.66.17c.2.09.38.21.58.32l1.14.66L37,122.93l9.15,5.28,25.48,14.71H25.09a4.85,4.85,0,0,1-.66,0,3.21,3.21,0,0,1-.66-.17,8,8,0,0,0-1.32-.51,1.52,1.52,0,0,0-1.32.41,8.47,8.47,0,0,0-.67.67l-.66.71-1.32,1.42-2.64,2.94-2.64,3.08L11.88,153l-1.32,1.64A158.31,158.31,0,0,0,0,169a158.31,158.31,0,0,0,10.56,14.37L11.88,185l1.32,1.54,2.64,3.08,2.64,2.94L19.8,194l.66.71a8.47,8.47,0,0,0,.67.67,1.52,1.52,0,0,0,1.32.41,8,8,0,0,0,1.32-.51,3.21,3.21,0,0,1,.66-.17,4.85,4.85,0,0,1,.66,0H71.67L46.19,209.79,37,215.07l-4.57,2.64-1.14.66c-.2.11-.38.23-.58.32a2.91,2.91,0,0,1-.66.17,10,10,0,0,0-1.4.22,1.55,1.55,0,0,0-.94,1c-.09.28-.16.59-.23.91l-.22,1-.44,1.89-.81,3.86-.75,4-.37,2-.33,2.07a159.83,159.83,0,0,0-2,17.73A159.92,159.92,0,0,0,39,260.67l2,.75,1.91.68,3.83,1.34,3.75,1.23,1.86.57.92.28a8.92,8.92,0,0,0,.91.25,1.49,1.49,0,0,0,1.35-.3,8.9,8.9,0,0,0,.89-1.1,3.11,3.11,0,0,1,.48-.48c.18-.14.38-.23.57-.35l1.14-.66,4.57-2.64L72.27,255l25.48-14.71L83,265.73l-5.28,9.15-2.64,4.57-.66,1.14c-.12.19-.22.39-.35.57a3.11,3.11,0,0,1-.48.48,8.9,8.9,0,0,0-1.1.89,1.49,1.49,0,0,0-.3,1.35,8.92,8.92,0,0,0,.25.91l.28.92.57,1.86,1.23,3.75,1.34,3.83.68,1.91.75,2a159.92,159.92,0,0,0,7.17,16.34,159.83,159.83,0,0,0,17.73-2l2.07-.33,2-.37,4-.75,3.86-.81,1.89-.44.95-.22c.32-.07.63-.14.91-.23a1.55,1.55,0,0,0,1-.94,10,10,0,0,0,.22-1.4,2.91,2.91,0,0,1,.17-.66c.09-.2.21-.38.32-.58l.66-1.14,2.64-4.57,5.28-9.15,14.71-25.48v46.58a4.85,4.85,0,0,1,0,.66,3.21,3.21,0,0,1-.17.66,8,8,0,0,0-.51,1.32,1.55,1.55,0,0,0,.41,1.33c.2.22.43.44.67.66l.71.66,1.42,1.32,2.94,2.64,3.08,2.64,1.54,1.32,1.64,1.32A158.31,158.31,0,0,0,169,338a158.31,158.31,0,0,0,14.37-10.56l1.64-1.32,1.54-1.32,3.08-2.64,2.94-2.64L194,318.2l.71-.66c.24-.22.47-.44.67-.66a1.55,1.55,0,0,0,.41-1.33,8,8,0,0,0-.51-1.32,3.21,3.21,0,0,1-.17-.66,4.85,4.85,0,0,1,0-.66V266.33l14.71,25.48,5.28,9.15,2.64,4.57.66,1.14c.11.2.23.38.32.58a2.91,2.91,0,0,1,.17.66,10,10,0,0,0,.22,1.4,1.55,1.55,0,0,0,1,.94c.28.09.59.16.91.23l1,.22,1.89.44,3.86.81,4,.75,2,.37,2.07.33a159.83,159.83,0,0,0,17.73,2A159.92,159.92,0,0,0,260.67,299l.75-2,.68-1.91,1.34-3.83,1.23-3.75.57-1.86.28-.92a8.92,8.92,0,0,0,.25-.91,1.49,1.49,0,0,0-.3-1.35,8.9,8.9,0,0,0-1.1-.89,3.11,3.11,0,0,1-.48-.48c-.13-.18-.23-.38-.35-.57l-.66-1.14-2.64-4.57L255,265.73l-14.71-25.48L265.73,255l9.15,5.28,4.57,2.64,1.14.66c.19.12.39.21.57.35a3.11,3.11,0,0,1,.48.48,8.9,8.9,0,0,0,.89,1.1,1.49,1.49,0,0,0,1.35.3,8.92,8.92,0,0,0,.91-.25l.92-.28,1.86-.57,3.75-1.23,3.83-1.34,1.91-.68,2-.75a159.92,159.92,0,0,0,16.34-7.17,159.83,159.83,0,0,0-2-17.73l-.33-2.07-.37-2-.75-4-.81-3.86L310.7,222l-.22-1c-.07-.32-.14-.63-.23-.91a1.55,1.55,0,0,0-.94-1,10,10,0,0,0-1.4-.22,2.91,2.91,0,0,1-.66-.17c-.2-.09-.38-.21-.58-.32l-1.14-.66L301,215.07l-9.15-5.28-25.48-14.71h46.58a4.85,4.85,0,0,1,.66,0,3.21,3.21,0,0,1,.66.17,8,8,0,0,0,1.32.51,1.55,1.55,0,0,0,1.33-.41c.22-.2.44-.43.66-.67l.66-.71,1.32-1.42,2.64-2.94,2.64-3.08,1.32-1.54,1.32-1.64A158.31,158.31,0,0,0,338,169,158.31,158.31,0,0,0,327.44,154.63Z"/></g></g></svg>