<svg xmlns="http://www.w3.org/2000/svg" viewBox="0 0 338 338"><defs><style>.cls-1{fill:#2a9d8f;}</style></defs><g id="Layer_2" data-name="Layer 2"><g id="Layer_1-2" data-name="Layer 1"><path class="cls-1" d="M303.63,169c20.34-8,31.56-26.19,34.37-47.47H283.59l38.48-38.48c-15.88-13.22-38.53-18.35-57.87-9.25C273,53.8,268,33,254.94,15.94L216.47,54.42V0C195.89,1.88,176.25,14.27,169,34.37,161.05,14,142.82,2.81,121.54,0V54.41L83.06,15.93C69.84,31.81,64.71,54.46,73.81,73.8,53.8,65,33,70,15.94,83.06l38.48,38.47H0C1.88,142.11,14.27,161.75,34.37,169,14,177,2.81,195.18,0,216.46H54.41L15.93,254.94c15.88,13.22,38.53,18.35,57.87,9.25C65,284.2,70,305,83.06,322.06l38.47-38.48V338c20.58-1.88,40.22-14.27,47.46-34.37,8,20.34,26.19,31.56,47.47,34.37V283.59l38.48,38.47c13.22-15.87,18.35-38.52,9.25-57.86,20,8.76,40.84,3.8,57.87-9.26l-38.48-38.47H338C336.12,195.89,323.73,176.25,303.63,169Zm-72.84,42.28c-10.15-.67-18.08-5.71-25.25-12a6.9,6.9,0,0,0-2-5.5l-7.42-7.41-3.71-3.71a23.22,23.22,0,0,1-1.8-1.91,6.69,6.69,0,0,0-1.88-1.83c-3.17-1.78-6.37-3.52-9.65-5.18S172.46,170.48,169,169q2.22,5.19,4.75,10.09c1.66,3.28,3.4,6.48,5.18,9.65a6.69,6.69,0,0,0,1.83,1.88,23.22,23.22,0,0,1,1.91,1.8l3.71,3.71,7.41,7.42a6.89,6.89,0,0,0,5.41,2c5.48,6.32,10.31,13.46,11.58,21.13,1.44,8.82-1.27,20.38-5.79,29.81-8.63-2.84-17-7.75-22.2-13.88-6.7-7.65-8.75-16.83-9.38-26.34a6.89,6.89,0,0,0,2.49-5.3V195.23a23.1,23.1,0,0,1,.07-2.63,6.6,6.6,0,0,0,0-2.62c-1-3.5-2-7-3.16-10.49s-2.38-7-3.78-10.49q-2.1,5.25-3.78,10.49c-1.14,3.5-2.17,7-3.16,10.49a6.6,6.6,0,0,0,0,2.62,23.1,23.1,0,0,1,.07,2.63V211a6.88,6.88,0,0,0,2.42,5.24c-.6,8.34-2.23,16.8-6.76,23.12-5.22,7.25-15.3,13.52-25.17,17-4.1-8.11-6.57-17.52-5.88-25.51.67-10.15,5.71-18.08,12-25.25a6.9,6.9,0,0,0,5.5-2l7.41-7.42,3.71-3.71a23.22,23.22,0,0,1,1.91-1.8,6.69,6.69,0,0,0,1.83-1.88c1.78-3.17,3.52-6.37,5.18-9.65s3.27-6.63,4.75-10.09q-5.19,2.22-10.09,4.75c-3.28,1.66-6.48,3.4-9.65,5.18a6.69,6.69,0,0,0-1.88,1.83,23.22,23.22,0,0,1-1.8,1.91l-3.71,3.71-7.42,7.41a6.89,6.89,0,0,0-2,5.41c-6.32,5.48-13.46,10.31-21.13,11.58-8.82,1.44-20.38-1.27-29.81-5.79,2.84-8.63,7.75-17,13.88-22.2,7.65-6.7,16.83-8.75,26.34-9.38a6.89,6.89,0,0,0,5.3,2.49h15.73a23.1,23.1,0,0,1,2.63.07,6.6,6.6,0,0,0,2.62,0c3.5-1,7-2,10.49-3.16s7-2.38,10.49-3.78q-5.25-2.1-10.49-3.78c-3.5-1.14-7-2.17-10.49-3.16a6.6,6.6,0,0,0-2.62,0,23.1,23.1,0,0,1-2.63.07H127a6.88,6.88,0,0,0-5.24,2.42c-8.34-.6-16.8-2.23-23.12-6.76-7.25-5.22-13.52-15.3-17-25.17,8.11-4.1,17.52-6.57,25.51-5.88,10.15.67,18.08,5.71,25.25,12a6.9,6.9,0,0,0,2,5.5l7.42,7.41,3.71,3.71a23.22,23.22,0,0,1,1.8,1.91,6.69,6.69,0,0,0,1.88,1.83c3.17,1.78,6.37,3.52,9.65,5.18s6.63,3.27,10.09,4.75q-2.22-5.19-4.75-10.09c-1.66-3.28-3.4-6.48-5.18-9.65a6.69,6.69,0,0,0-1.83-1.88,23.22,23.22,0,0,1-1.91-1.8l-3.71-3.71-7.41-7.42a6.89,6.89,0,0,0-5.41-2c-5.48-6.32-10.31-13.46-11.58-21.13-1.44-8.82,1.27-20.38,5.79-29.81,8.63,2.84,17,7.75,22.2,13.88,6.7,7.65,8.75,16.83,9.38,26.34a6.89,6.89,0,0,0-2.49,5.3v15.73a23.1,23.1,0,0,1-.07,2.63,6.6,6.6,0,0,0,0,2.62c1,3.5,2,7,3.16,10.49s2.38,7,3.78,10.49q2.1-5.25,3.78-10.49c1.14-3.5,2.17-7,3.16-10.49a6.6,6.6,0,0,0,0-2.62,23.1,23.1,0,0,1-.07-2.63V127a6.88,6.88,0,0,0-2.42-5.24c.6-8.34,2.23-16.8,6.76-23.12,5.22-7.25,15.3-13.52,25.17-17,4.1,8.11,6.57,17.52,5.88,25.51-.67,10.15-5.71,18.08-12,25.25a6.9,6.9,0,0,0-5.5,2l-7.41,7.42-3.71,3.71a23.22,23.22,0,0,1-1.91,1.8,6.69,6.69,0,0,0-1.83,1.88c-1.78,3.17-3.52,6.37-5.18,9.65S170.48,165.54,169,169q5.19-2.22,10.09-4.75c3.28-1.66,6.48-3.4,9.65-5.18a6.69,6.69,0,0,0,1.88-1.83,23.22,23.22,0,0,1,1.8-1.91l3.71-3.71,7.42-7.41a6.89,6.89,0,0,0,2-5.41c6.32-5.48,13.46-10.31,21.13-11.58,8.82-1.44,20.38,1.27,29.81,5.79-2.84,8.63-7.75,17-13.88,22.2-7.65,6.7-16.83,8.75-26.34,9.38a6.89,6.89,0,0,0-5.3-2.49H195.23a23.1,23.1,0,0,1-2.63-.07,6.6,6.6,0,0,0-2.62,0c-3.5,1-7,2-10.49,3.16s-7,2.38-10.49,3.78q5.25,2.1,10.49,3.78c3.5,1.14,7,2.17,10.49,3.16a6.6,6.6,0,0,0,2.62,0,23.1,23.1,0,0,1,2.63-.07H211a6.88,6.88,0,0,0,5.24-2.42c8.34.6,16.8,2.23,23.12,6.76,7.25,5.22,13.52,15.3,17,25.17C248.19,209.51,238.78,212,230.79,211.29Z"/></g></g></svg>