<svg xmlns="http://www.w3.org/2000/svg" viewBox="0 0 336.87 339.03"><defs><style>.cls-1{fill:#f5a261;}</style></defs><g id="Layer_2" data-name="Layer 2"><g id="Layer_1-2" data-name="Layer 1"><path class="cls-1" d="M321.05,177.12l-43.67-7.67,43.67-7.67a18.82,18.82,0,0,0-6.55-37l-43.67,7.67,38.41-22a18.74,18.74,0,0,0,7.07-25.66,19,19,0,0,0-25.82-7,.4.4,0,0,1-.17.09l-38.41,22L280.4,66.05a18.73,18.73,0,0,0-2.72-26.47,19,19,0,0,0-26.29,2.27L222.9,75.6l15.17-41.38A18.78,18.78,0,0,0,227.21,9.89a19,19,0,0,0-24.49,10.8c-.09.21-.17.47-.26.68L187.25,63V18.8a19,19,0,0,0-37.9,0V62.62l-15.08-41.2A18.94,18.94,0,0,0,98.4,33.58c.09.22.17.47.26.69l15.13,41.42L85.3,41.93a19,19,0,0,0-26.73-1.75,18.77,18.77,0,0,0-2.29,25.95l28.5,33.76-38.41-22A19,19,0,0,0,20.46,84.6a18.79,18.79,0,0,0,6.77,25.74.33.33,0,0,0,.17.08l38.41,22-43.54-7.67a18.82,18.82,0,1,0-6.59,37.05h0l43.67,7.67-43.67,7.63A18.78,18.78,0,0,0,19,214.42a17,17,0,0,0,3.32-.3l43.67-7.66-38.41,22a18.74,18.74,0,0,0-7.07,25.66,19,19,0,0,0,25.82,7,.36.36,0,0,1,.18-.08l38.41-22-28.5,33.76a18.71,18.71,0,0,0,2.2,26.51,19,19,0,0,0,26.68-2.19l.13-.12,28.5-33.76L98.7,304.63a18.93,18.93,0,0,0,35.35,13.54c.09-.22.17-.48.26-.69l15.09-41.2v43.94a18.95,18.95,0,0,0,37.89,0V276l15.22,41.59a18.93,18.93,0,0,0,35.86-12.17c-.09-.21-.17-.47-.26-.68L223,263.3l28.5,33.75a19,19,0,0,0,26.64,2.7,18.74,18.74,0,0,0,2.71-26.47c-.13-.13-.21-.26-.34-.39L252,239.14l38.41,22a19,19,0,0,0,25.91-6.72,18.79,18.79,0,0,0-6.77-25.74.29.29,0,0,0-.17-.09l-38.41-22,43.67,7.66a21.45,21.45,0,0,0,3.32.3,18.86,18.86,0,0,0,18.92-18.8,19.13,19.13,0,0,0-15.82-18.63Z"/></g></g></svg>